# xmcd
#
# Track frame offsets:
#	150
#	14639
#	25917
#	39086
#	51716
#	63995
#	78564
#	91016
#	104871
#	116222
#	128841
#	142965
#
# Disc length: 2071 seconds
#
# Revision: 0
# Processed by: cddbd v1.5.2PL0 Copyright (c) Steve Scherf et al.
# Submitted via: audiograbber 1.83.01
#
DISCID=a708150c
DTITLE=Garzon y Collazos - Me LLevaras En Ti
DYEAR=1900
DGENRE=Folklore
TTITLE0=Me LLevaras En Ti
TTITLE1=El Trapiche
TTITLE2=Invierno y Primavera
TTITLE3=Negrita
TTITLE4=Vete P'al Diablo
TTITLE5=Amor En Sombras
TTITLE6=Chatica Linda
TTITLE7=Amor De Hiedra
TTITLE8=Duda
TTITLE9=La Hamaca
TTITLE10=Los Guaduales
TTITLE11=Triste Despertar
EXTD=
EXTT0=
EXTT1=
EXTT2=
EXTT3=
EXTT4=
EXTT5=
EXTT6=
EXTT7=
EXTT8=
EXTT9=
EXTT10=
EXTT11=
PLAYORDER=
